<svg xmlns="http://www.w3.org/2000/svg" xmlns:xlink="http://www.w3.org/1999/xlink" version="1.1" id="Layer_1" x="0px" y="0px" width="100px" height="100px" viewBox="0 0 100 100" enable-background="new 0 0 100 100" xml:space="preserve">
<path d="M97.562,42.961c-0.025-0.225-0.103-0.517-0.157-0.736c-0.026-0.107-0.08-0.245-0.114-0.349  c-0.068-0.205-0.201-0.462-0.302-0.654c-0.065-0.125-0.174-0.281-0.251-0.399c-0.123-0.188-0.394-0.508-0.616-0.731  c-0.119-0.12-0.437-0.437-1.047-0.87c-0.585-0.415-1.281-0.783-1.288-0.786c-0.636-0.331-0.983-0.506-1.924-0.883  c-0.379-0.153-0.796-0.295-1.072-0.39c-0.236-0.081-0.555-0.176-0.793-0.249c-13.423-3.951-26.845-7.901-40.269-11.852  c-0.595-0.173-1.068-0.254-1.375-0.293l-0.014-0.004c-0.054-0.016-0.109-0.02-0.162-0.017c-0.016-0.001-0.031-0.003-0.046-0.005  c-0.065-0.026-0.136-0.04-0.211-0.034l-0.103,0.008c-0.117-0.006-0.226-0.009-0.363-0.013c-0.178-0.004-0.415,0.01-0.592,0.021  c-0.001,0-0.002,0-0.002,0c-11.796,0.983-23.59,1.966-35.386,2.949l-4.459,0.372c0.003,0,0.007,0.001,0.011,0  c-0.003,0-0.008,0-0.011,0c-0.469,0.044-0.761,0.114-0.894,0.152c-0.207,0.059-0.478,0.153-0.679,0.23  c-0.106,0.041-0.242,0.112-0.345,0.163c-0.187,0.092-0.513,0.304-0.602,0.374c-0.082,0.064-0.196,0.145-0.273,0.215  c-0.327,0.3-0.327,0.3-0.489,0.484c-0.368,0.417-0.699,0.989-0.865,1.493c-0.036,0.109-0.085,0.254-0.109,0.366  c-0.045,0.208-0.093,0.487-0.12,0.698c-0.017,0.127-0.02,0.299-0.021,0.427c0,0.011,0,0.023,0,0.035h0l0,0.007  c0.001,0.104,0.009,0.229,0.012,0.326c0.002,0.025,0.007,0.051,0.012,0.077c-0.005-0.026-0.01-0.052-0.012-0.077  c0.016,0.217,0.032,0.434,0.047,0.651v0.003c0.178,2.465,0.356,4.929,0.534,7.393v0.001c0.012,0.155,0.023,0.311,0.034,0.467  c0,0,0,0.001,0,0.002c0.033,0.428,0.097,0.703,0.171,0.994c0.073,0.287,0.229,0.687,0.292,0.821  c0.157,0.334,0.281,0.598,0.568,1.029c0.081,0.122,0.194,0.282,0.286,0.397c0.131,0.165,0.315,0.378,0.455,0.535  c7.796,8.36,15.592,16.721,23.389,25.081c1.105,1.173,1.937,1.789,2.383,2.12c0.128,0.095,0.256,0.185,0.383,0.271l0,0.001h0  c0.803,0.546,1.565,0.925,1.9,1.066c0.688,0.291,0.802,0.323,1.434,0.502c0.288,0.081,0.682,0.147,0.979,0.181  c0.595,0.066,0.926,0.046,1.384,0.018c0.302-0.019,0.699-0.104,0.995-0.164c0.011-0.003,0.019-0.01,0.029-0.013  c-0.01,0.003-0.018,0.01-0.028,0.013c14.91-3.626,29.818-7.252,44.729-10.879c3.07-0.746,6.141-1.493,9.211-2.239  c0-0.001,0.001-0.001,0.001-0.001c0.448-0.113,0.73-0.236,0.832-0.284c0.472-0.223,0.595-0.308,0.959-0.561  c0.127-0.088,0.456-0.363,0.567-0.475c0.079-0.079,0.189-0.181,0.264-0.265c0.149-0.167,0.343-0.396,0.482-0.572  c0.193-0.242,0.639-0.901,0.945-1.661c0.189-0.468,0.238-0.657,0.356-1.113c0.052-0.199,0.069-0.322,0.134-0.778  c0.244-2.193,0.487-4.387,0.731-6.581c0.166-1.494,0.333-2.989,0.499-4.483c0.019-0.227,0.042-0.529,0.039-0.756  C97.616,43.504,97.588,43.193,97.562,42.961z M47.221,24.717c0.047,0.001,0.1,0.009,0.148,0.012  C47.32,24.726,47.267,24.718,47.221,24.717C47.22,24.717,47.221,24.717,47.221,24.717z M5.355,44.121  c-0.017-0.029-0.037-0.062-0.068-0.1c-0.792-0.981-0.821-1.559-0.821-1.559l-0.643-8.07l22.948,19.303l0.362,13.015L5.355,44.121z   M8.847,28.977L48,25.625c0.006-0.001,0.012-0.003,0.019-0.004c0.02,0.009,0.039,0.019,0.06,0.024l39.036,11.627l-53.095,7.661  L8.847,28.977z M96.061,45.034c-0.103,0.946-0.205,1.889-0.308,2.829c-0.102,0.936-0.203,1.868-0.305,2.798  c-0.101,0.926-0.2,1.849-0.301,2.767c-0.099,0.916-0.198,1.829-0.297,2.738c-0.043,0.399-0.148,0.795-0.301,1.167  s-0.353,0.723-0.587,1.032s-0.503,0.578-0.792,0.789c-0.29,0.211-0.6,0.363-0.917,0.438c-3.777,0.892-7.669,1.812-11.683,2.76  c-4.139,0.978-8.41,1.986-12.82,3.029c-4.557,1.076-9.265,2.188-14.135,3.339c-5.039,1.19-10.256,2.423-15.662,3.7  c-0.47,0.111-0.921,0.121-1.333,0.043c-0.414-0.078-0.788-0.244-1.105-0.484c-0.318-0.241-0.577-0.557-0.759-0.933  c-0.182-0.377-0.286-0.814-0.292-1.298c-0.013-1.101-0.026-2.205-0.04-3.314c-0.013-1.115-0.027-2.234-0.041-3.359  c-0.014-1.13-0.027-2.266-0.041-3.406c-0.014-1.146-0.027-2.296-0.042-3.453c-0.006-0.511,0.089-1.018,0.268-1.495  c0.178-0.479,0.438-0.927,0.762-1.321s0.708-0.734,1.136-0.996c0.426-0.262,0.895-0.446,1.385-0.529  c5.631-0.951,11.059-1.868,16.294-2.753c5.053-0.854,9.932-1.678,14.646-2.475c4.559-0.771,8.968-1.516,13.235-2.237  c4.133-0.698,8.137-1.375,12.019-2.03c0.326-0.055,0.627-0.021,0.892,0.087c0.264,0.108,0.491,0.291,0.674,0.532  c0.181,0.241,0.315,0.541,0.394,0.885C96.085,44.228,96.106,44.615,96.061,45.034z"/>
<path d="M40.297,66.27c-0.126-0.121-0.271-0.22-0.427-0.296c0.009,0.004,0.018,0.007,0.027,0.011  c-0.008-0.003-0.093-0.047-0.106-0.054c-0.076-0.039-0.155-0.072-0.237-0.1s-0.167-0.049-0.254-0.062  c-0.087-0.015-0.177-0.023-0.27-0.025c-0.092-0.001-0.186,0.005-0.281,0.018c-0.284,0.037-0.554,0.136-0.8,0.281  c-0.247,0.146-0.469,0.339-0.656,0.565s-0.338,0.487-0.443,0.768c-0.104,0.281-0.162,0.581-0.161,0.888  c0,0.191,0.023,0.374,0.066,0.544c0.043,0.171,0.105,0.33,0.185,0.475c0.08,0.146,0.176,0.276,0.288,0.391  c0.111,0.114,0.236,0.212,0.372,0.291c0.034,0.02,0.068,0.038,0.102,0.058c0.109,0.063,0.227,0.115,0.35,0.153  c0.245,0.075,0.513,0.097,0.794,0.055c0.281-0.041,0.548-0.142,0.792-0.288s0.461-0.339,0.646-0.563  c0.184-0.224,0.333-0.48,0.437-0.757s0.162-0.572,0.164-0.875c0.001-0.303-0.053-0.585-0.154-0.834S40.48,66.444,40.297,66.27z   M39.676,65.893c-0.007-0.002-0.014-0.006-0.021-0.008c0.001,0,0.002,0,0.003,0.001C39.665,65.888,39.67,65.891,39.676,65.893z   M39.429,65.828c-0.022-0.004-0.046-0.007-0.069-0.01c0.015,0.002,0.03,0.001,0.045,0.004C39.413,65.823,39.42,65.826,39.429,65.828  z M39.178,65.802c-0.023-0.001-0.046-0.002-0.07-0.002c0.009,0,0.018-0.002,0.027-0.002C39.15,65.798,39.164,65.802,39.178,65.802z   M36.85,68.824c0.006,0.027,0.013,0.054,0.021,0.08c-0.004-0.013-0.009-0.025-0.013-0.039S36.853,68.838,36.85,68.824z   M36.807,68.577c0.003,0.026,0.008,0.051,0.012,0.076C36.814,68.628,36.81,68.604,36.807,68.577z M36.92,69.062  c0.008,0.023,0.016,0.048,0.025,0.07C36.937,69.11,36.929,69.086,36.92,69.062z M37.04,69.335c0.002,0.004,0.004,0.008,0.007,0.012  c-0.001-0.002-0.003-0.004-0.004-0.006S37.041,69.337,37.04,69.335z M37.163,69.529c0.014,0.02,0.029,0.037,0.044,0.057  C37.192,69.566,37.177,69.549,37.163,69.529z M37.305,69.701c0.018,0.019,0.036,0.037,0.055,0.056  c-0.009-0.009-0.02-0.017-0.029-0.025C37.321,69.722,37.313,69.71,37.305,69.701z M37.472,69.858  c0.017,0.014,0.034,0.029,0.052,0.043C37.506,69.888,37.489,69.872,37.472,69.858z"/>
</svg>